<svg width="1024" height="1024" viewBox="0 0 1024 1024" fill="none" xmlns="http://www.w3.org/2000/svg">
<path d="M558.84 126C628.957 126 686.277 183.319 686.277 253.437H662.176C662.175 196.631 615.646 150.104 558.84 150.104H460.72C403.914 150.105 357.389 196.631 357.388 253.437V335.846C400.546 303.906 453.95 285.019 511.768 285.019C655.241 285.019 771.535 401.313 771.535 544.786C771.535 688.26 655.241 804.554 511.768 804.554V780.453C531.231 780.453 550.144 778.093 568.234 773.645C562.827 752.783 543.871 737.375 521.319 737.375C494.557 737.376 472.859 759.073 472.858 785.835V786.022L472.852 786.206L472.821 787.2C472.823 787.259 472.827 787.323 472.829 787.392C472.841 787.808 472.852 788.39 472.858 789.12C472.871 790.581 472.857 792.645 472.758 795.177C472.559 800.222 472.017 807.222 470.632 815.088C467.926 830.455 461.707 850.87 446.809 865.769C430.716 881.861 416.086 889.839 404.888 893.701C399.316 895.623 394.682 896.497 391.25 896.87C389.537 897.056 388.129 897.118 387.061 897.125C386.527 897.128 386.078 897.117 385.719 897.103C385.692 897.101 385.665 897.1 385.64 897.099H252V544.787H276.104C276.104 604.252 298.15 658.567 334.521 700L316.405 715.903C300.21 697.454 286.589 676.677 276.104 654.144V773.806H394.31V797.91H276.104V872.994H386.479L386.783 873.021C386.814 873.021 386.854 873.021 386.903 873.021C387.185 873.019 387.776 873.003 388.644 872.908C390.373 872.72 393.239 872.224 397.028 870.917C404.554 868.321 416.092 862.397 429.765 848.725C439.501 838.987 444.52 824.39 446.895 810.907C448.049 804.348 448.509 798.461 448.676 794.228C448.759 792.12 448.767 790.444 448.758 789.326C448.753 788.768 448.743 788.349 448.735 788.089C448.732 787.96 448.73 787.869 448.729 787.819L448.725 787.797L448.702 787.328L448.717 786.855L448.755 785.592C448.887 745.63 481.327 713.271 521.319 713.271C554.765 713.271 582.927 735.903 591.328 766.687C682.338 734.055 747.435 647.027 747.435 544.786C747.434 414.625 641.929 309.123 511.768 309.123C381.607 309.124 276.105 414.625 276.104 544.786H252C252 469.203 284.276 401.162 335.798 353.694H333.283V253.437C333.284 183.32 390.603 126.001 460.72 126H558.84ZM513.586 435.79C551.136 435.791 581.599 466.228 581.599 503.806C581.598 527.465 569.506 548.295 551.194 560.471L564.42 641.776H460.611L474.059 559.15C456.828 546.828 445.571 526.648 445.57 503.806C445.57 466.252 476.033 435.79 513.586 435.79ZM513.586 459.895C489.344 459.895 469.675 479.564 469.675 503.806C469.675 520.572 479.057 535.147 492.921 542.558L500.518 546.618L488.953 617.672H536.082L524.63 547.26L532.711 543.345C547.406 536.224 557.494 521.174 557.494 503.806C557.494 479.546 537.83 459.895 513.586 459.895Z" fill="#E8685D" style="fill:#E8685D;fill:color(display-p3 0.9098 0.4078 0.3647);fill-opacity:1;"/>
</svg>
